<svg width="589" height="183" viewBox="0 0 589 183" fill="none" xmlns="http://www.w3.org/2000/svg">
<path d="M254.219 182.857V173.44H260.576C267.343 173.44 269.394 171.236 269.394 164.224V119.744H268.574C262.832 127.558 252.374 133.969 238.429 133.969C215.257 133.969 199.261 115.336 199.261 87.8862C199.261 55.2273 223.049 36.5938 248.888 36.5938C258.526 36.5938 268.369 38.9981 276.161 46.8122L284.159 35.3916H295.233V164.224C295.233 171.236 297.283 173.44 304.05 173.44H309.177V182.857H254.219ZM225.715 82.6768C225.715 104.516 237.404 116.337 251.348 116.337C258.936 116.337 265.293 113.332 269.394 108.123V68.4512C269.394 54.8266 259.961 50.018 250.323 50.018C236.378 50.018 225.715 60.6371 225.715 82.6768Z" fill="white"/>
<path d="M342.91 133.969C324.454 133.969 314.201 122.949 314.201 106.319V56.0288C314.201 50.2183 311.125 47.6136 304.973 47.6136H300.461V38.1967H340.039V99.1064C340.039 109.726 346.806 114.935 355.009 114.935C364.237 114.935 375.31 108.323 375.31 95.2995V56.0288C375.31 50.2183 372.234 47.6136 365.877 47.6136H359.725V38.1967H401.149V112.931C401.149 118.942 404.02 121.146 410.172 121.146H414.683V130.763H375.721V116.738H374.9C369.774 126.155 358.495 133.969 342.91 133.969Z" fill="white"/>
<path d="M419.358 130.763V121.146H424.075C430.637 121.146 433.713 118.341 433.713 112.731V56.0288C433.713 50.018 431.457 47.6136 425.305 47.6136H419.358V38.1967H473.701V47.6136H467.959C461.602 47.6136 459.551 50.018 459.551 56.0288V112.731C459.551 118.341 462.627 121.146 469.189 121.146H473.701V130.763H419.358Z" fill="white"/>
<path d="M478.119 182.857V173.44H483.451C489.808 173.44 491.859 171.036 491.859 165.025V56.4295C491.859 50.2183 489.193 47.6136 482.426 47.6136H478.734V38.1967H516.672L517.287 51.6208H518.312C524.259 43.0053 535.128 36.5938 548.867 36.5938C572.04 36.5938 588.035 55.027 588.035 82.4764C588.035 115.135 564.247 133.969 538.409 133.969C530.616 133.969 523.439 132.166 517.697 128.559V165.025C517.697 171.036 519.953 173.44 526.105 173.44H533.282V182.857H478.119ZM517.697 101.911C517.697 115.536 527.335 120.345 536.973 120.345C550.918 120.345 561.376 109.726 561.376 87.6858C561.376 65.8465 549.892 54.0252 535.948 54.0252C528.36 54.0252 522.003 57.0306 517.697 62.4403V101.911Z" fill="white"/>
<path fill-rule="evenodd" clip-rule="evenodd" d="M183.703 0.284336C185.096 -0.506923 186.789 0.464052 187.036 1.83875C187.038 1.84585 187.048 1.84636 187.05 1.83933C187.053 1.83128 187.065 1.83387 187.064 1.84219C187.06 1.87513 187.056 1.90836 187.052 1.94135V1.94479C187.082 2.18594 187.067 2.43788 186.999 2.69391C186.964 2.82486 186.928 2.95611 186.911 3.09054C186.851 3.55991 186.787 4.03581 186.719 4.51714C186.699 4.65432 186.702 4.79423 186.689 4.93211C186.684 4.97882 186.677 5.02627 186.666 5.07426C186.639 5.19597 186.604 5.31203 186.585 5.43535C181.906 36.7734 167.376 91.355 148.943 91.6259C168.103 91.914 187.035 151.039 187.074 180.992C187.074 181.004 187.056 181.005 187.052 180.993C187.049 180.983 187.034 180.984 187.031 180.995C186.768 182.356 185.088 183.311 183.703 182.524C180.196 180.532 175.96 178.351 171.383 175.995C153.173 166.618 129.568 154.462 124.984 140.397C124.771 139.742 124.234 139.236 123.56 139.099C115.439 137.444 109.482 134.317 105.113 130.289C104.374 129.608 103.215 129.607 102.558 130.369C99.66 133.729 97.1003 137.698 95.3812 140.783C94.6502 142.095 92.6091 142.122 91.8616 140.819C90.0926 137.737 87.4861 133.723 84.4975 130.345C83.838 129.6 82.6931 129.608 81.9617 130.283C77.5923 134.314 71.633 137.443 63.5084 139.099C62.8342 139.236 62.2974 139.742 62.0841 140.397C57.5004 154.462 33.8954 166.617 15.6853 175.994C11.1089 178.351 6.87323 180.532 3.36584 182.524C1.98366 183.309 0.307224 182.361 0.0385847 181.004C0.0366142 180.994 0.0227328 180.993 0.0196863 181.003C0.0165656 181.013 0.0010127 181.011 0.000787999 181C0.00118057 180.903 0.00243984 180.805 0.00307871 180.707C0.000561795 180.647 0.000973651 180.586 0.00422406 180.525C0.299032 150.428 19.0711 91.9148 38.1313 91.6282C19.7041 91.3575 5.18169 36.8111 0.493863 5.46802C0.474112 5.33609 0.435345 5.21234 0.40567 5.08228C0.393893 5.03064 0.385786 4.97941 0.381045 4.92925C0.367277 4.78332 0.371722 4.63534 0.351266 4.49021C0.286324 4.02997 0.224677 3.57479 0.166864 3.1255C0.148684 2.9843 0.110178 2.84664 0.0723726 2.70939C-0.00218483 2.43866 -0.0169031 2.17223 0.0179683 1.91842V1.91498C0.0148426 1.88822 0.0118687 1.86146 0.00880547 1.83474C0.00795246 1.8273 0.0192626 1.8247 0.0214044 1.83188C0.0232698 1.83802 0.0322031 1.83759 0.0334306 1.8313C0.285589 0.460477 1.97482 -0.505638 3.36584 0.284336C6.87326 2.27625 11.1088 4.45777 15.6853 6.81438C33.8955 16.1916 57.5005 28.3472 62.0841 42.4124C62.2974 43.067 62.8342 43.5732 63.5084 43.7106C71.7851 45.3975 77.8149 48.6124 82.2057 52.7534C82.941 53.4469 84.1079 53.4565 84.7707 52.6932C87.6442 49.3831 90.1461 45.5208 91.861 42.5333C92.6087 41.2309 94.6511 41.2577 95.3824 42.5694C97.0481 45.5576 99.5024 49.3754 102.289 52.6657C102.949 53.4446 104.13 53.4436 104.873 52.7436C109.263 48.6074 115.29 45.3962 123.56 43.7106C124.234 43.5731 124.771 43.067 124.984 42.4124C129.568 28.3471 153.173 16.1917 171.383 6.81438C175.96 4.4578 180.195 2.27625 183.703 0.284336ZM87.3936 101.92C87.6168 100.482 86.4053 99.2597 84.9637 99.4524C81.0947 99.9699 77.6723 100.911 74.8479 102.459C71.3216 104.392 68.4426 107.411 66.8041 112.639C66.0359 115.089 63.9111 116.852 61.3854 117.161L61.1403 117.187C57.0368 117.532 52.3887 119.521 47.3073 123.272C42.2598 126.998 37.1565 132.189 32.2196 138.304C31.0684 139.73 29.9334 141.197 28.8179 142.696C27.2433 144.812 30.0021 147.46 32.223 146.039C40.4139 140.798 49.4052 136.386 58.8777 133.781C78.4048 128.41 85.5786 113.614 87.3936 101.92ZM101.786 99.4524C100.344 99.2597 99.133 100.482 99.3562 101.92C101.171 113.614 108.345 128.41 127.872 133.781C137.344 136.386 146.335 140.798 154.526 146.039C156.747 147.46 159.506 144.812 157.931 142.696C156.816 141.197 155.681 139.73 154.53 138.304C149.593 132.189 144.49 126.998 139.442 123.272C134.361 119.521 129.713 117.532 125.609 117.187L125.364 117.161C122.838 116.852 120.714 115.089 119.946 112.639C118.307 107.411 115.428 104.392 111.901 102.459C109.077 100.912 105.655 99.9699 101.786 99.4524ZM144.444 104.606C143.98 102.745 139.204 104.113 137.872 105.492C136.503 106.908 138.485 112.53 140.209 113.482C141.197 114.027 142.175 114.618 143.142 115.25C144.779 116.319 147.522 114.205 146.844 112.37C145.78 109.487 145.014 106.891 144.444 104.606ZM49.2109 105.503C47.8757 104.123 43.0923 102.758 42.6268 104.622C42.0576 106.902 41.2924 109.492 40.2308 112.367C39.5532 114.202 42.2947 116.315 43.9314 115.246C44.9024 114.612 45.8845 114.02 46.8772 113.472C48.6031 112.52 50.5814 106.92 49.2109 105.503ZM64.9778 82.3097C63.7303 80.8464 58.6109 81.2006 57.4134 82.7052C53.6914 87.3814 47.6968 90.4396 44.2538 91.5485C44.2402 91.5529 44.2284 91.5612 44.2189 91.572C44.1901 91.6047 44.1911 91.6546 44.22 91.6872C44.2296 91.6979 44.2413 91.7068 44.255 91.7113C47.7014 92.8213 53.7041 95.8247 57.4248 100.467C58.6241 101.963 63.6551 102.298 64.8902 100.831C70.4981 94.1717 79.1624 92.0636 87.8855 91.5238C79.2078 90.9849 70.5882 88.89 64.9778 82.3097ZM129.671 82.7172C128.472 81.2128 123.33 80.8578 122.081 82.3211C116.471 88.8922 107.857 90.9853 99.185 91.5238C107.901 92.0631 116.557 94.1685 122.165 100.815C123.403 102.281 128.46 101.946 129.662 100.45C133.384 95.8164 139.377 92.8183 142.82 91.7095C142.833 91.7051 142.845 91.6963 142.855 91.6855C142.884 91.6526 142.884 91.6026 142.855 91.5697C142.846 91.5589 142.834 91.5506 142.82 91.5462C139.38 90.4383 133.394 87.3854 129.671 82.7172ZM32.223 36.6957C30.0021 35.2748 27.2436 37.9232 28.8179 40.0389C29.9333 41.5375 31.0684 43.0047 32.2196 44.4305C37.1565 50.5454 42.2598 55.7375 47.3073 59.4634C52.3887 63.2142 57.0368 65.2025 61.1403 65.5475L61.3854 65.5733C63.9111 65.8824 66.0359 67.6459 66.8041 70.0967C68.4426 75.3245 71.3217 78.3431 74.8479 80.2755C77.6723 81.8232 81.0947 82.7648 84.9637 83.2823C86.4052 83.4751 87.6166 82.2532 87.3936 80.8149C85.5787 69.1214 78.4049 54.3246 58.8777 48.9539C49.4052 46.3486 40.4139 41.9367 32.223 36.6957ZM157.931 40.0389C159.506 37.9231 156.747 35.2745 154.526 36.6957C146.335 41.9366 137.344 46.3486 127.872 48.9539C108.345 54.3246 101.171 69.1214 99.3562 80.8149C99.1331 82.2532 100.345 83.475 101.786 83.2823C105.655 82.7648 109.077 81.8232 111.901 80.2755C115.428 78.3431 118.307 75.3246 119.946 70.0967C120.714 67.646 122.838 65.8825 125.364 65.5733L125.609 65.5475C129.713 65.2025 134.361 63.2142 139.442 59.4634C144.49 55.7375 149.593 50.5455 154.53 44.4305C155.681 43.0046 156.816 41.5375 157.931 40.0389ZM43.8776 67.5267C42.2203 66.441 39.3419 68.6719 40.0458 70.5249C41.5083 74.375 42.4326 77.7119 43.0581 80.4905C43.3943 81.9842 46.1488 82.1414 46.9099 80.8131C49.4806 76.3269 53.2935 74.3001 56.5251 73.6767C56.7497 73.6334 56.7739 73.1147 56.552 73.0594C52.1523 72.1009 47.9188 70.1739 43.8776 67.5267ZM147.028 70.5226C147.731 68.6694 144.852 66.4379 143.195 67.5238C139.16 70.1674 134.934 72.093 130.541 73.0537C130.317 73.1096 130.341 73.6334 130.568 73.6778C133.789 74.3043 137.585 76.326 140.15 80.7868C140.916 82.1186 143.684 81.9608 144.022 80.4618C144.647 77.6886 145.57 74.3604 147.028 70.5226Z" fill="white"/>
</svg>
